<svg fill="none" height="24" viewBox="0 0 24 24" width="24" xmlns="http://www.w3.org/2000/svg"><g stroke="#fff" stroke-linecap="round" stroke-linejoin="round" stroke-width="2"><path d="m6.10999 17.5c-2.21-2.07-4.10999-5.02-4.10999-8.82001 0-3.09 2.49-5.58996 5.56-5.58996 1.82 0 3.43.87999 4.44 2.23999 1.01-1.36 2.63-2.23999 4.44-2.23999 1.15 0 2.22.34996 3.11.95996"/><path d="m21.74 7c.17.53.26 1.1.26 1.69 0 7-6.48 11.13-9.38 12.13-.34.12-.9.12-1.24 0-.65-.22-1.46998-.6-2.35998-1.13"/><path d="m22 2-20 20"/></g></svg>